# xmcd
#
# Track frame offsets: 
#        150
#        34455
#        62716
#        88304
#        113350
#        148729
#        171115
#        200778
#        235103
#        255824
#
# Disc length: 3575 seconds
#
# Revision: 3
# Processed by: cddbd v1.5.2PL0 Copyright (c) Steve Scherf et al.
# Submitted via: ExactAudioCopy v0.99pb4
#
DISCID=880df50a
DTITLE=Nighthawks - Citizen Wayne
DYEAR=1998
DGENRE=Jazz
TTITLE0=Mondo
TTITLE1=Bar Next To The Roxy
TTITLE2=Orphanage Des Elephants
TTITLE3=Round Midnight
TTITLE4=Zero Hour (Bronco Suite)
TTITLE5=Hace Mucho (Bronco Suite)
TTITLE6=Mañana (Bronco Suite)
TTITLE7=Hornflakes Diner
TTITLE8=Back To The Beach
TTITLE9=Love's End
EXTD=YEAR: 1998 ID3G: 0
EXTT0=
EXTT1=
EXTT2=
EXTT3=
EXTT4=
EXTT5=
EXTT6=
EXTT7=
EXTT8=
EXTT9=
PLAYORDER=
